<svg version="1.1" xmlns="http://www.w3.org/2000/svg" viewBox="0 0 466.2 123.5"><path d="M283.6,72.3l-5.5-9.6h2.9l3.9,6.8l3.9-6.8h2.9l-5.5,9.6v7.3h-2.6L283.6,72.3L283.6,72.3z"></path><path d="M309.7,71.1c0,4.9-3.7,8.8-8.8,8.8s-8.8-3.8-8.8-8.8c0-5,3.8-8.8,8.8-8.8S309.7,66.1,309.7,71.1z M307,71.1
	c0-3.8-2.5-6.4-6.1-6.4s-6.1,2.7-6.1,6.4c0,3.7,2.5,6.4,6.1,6.4S307,74.8,307,71.1z"></path><path d="M315.4,62.6v10.2c0,0.9,0,2,0.5,2.9c0.5,0.9,1.6,1.7,3.1,1.7c1.3,0,2.5-0.5,3.1-1.7c0.5-0.9,0.5-2,0.5-2.9V62.6h2.6v10.9
	c0,1.4-0.3,3-1.6,4.4c-0.9,1-2.4,2-4.7,2s-3.8-1-4.7-2c-1.3-1.4-1.6-3-1.6-4.4V62.6H315.4z"></path><path d="M332.2,62.6c1.4,0,3.1,0.1,4.5,1c1.6,1.1,2,2.9,2,4c0,2.4-1.5,4.2-3.8,4.7l5.3,7.2h-3.1l-4.8-6.9h-0.4v6.9h-2.6V62.6
	L332.2,62.6L332.2,62.6z M331.8,70.4h0.8c0.7,0,3.5-0.1,3.5-2.8c0-2.4-2.2-2.6-3.4-2.6h-0.9V70.4z"></path><path d="M347.8,79.5l3.5-18.2l5.9,13.1l6-13.1l3.2,18.2h-2.7L362,69.3l-4.9,11l-4.9-11l-1.8,10.2L347.8,79.5L347.8,79.5z"></path><path d="M379.7,75.4h-7.2l-1.9,4.1h-2.8l8.4-17.9l8,17.9h-2.8L379.7,75.4z M378.7,73l-2.5-5.7l-2.6,5.7H378.7z"></path><path d="M386.3,79.5v-18l12.2,12.8V62.6h2.6v17.9l-12.2-12.8v11.8L386.3,79.5L386.3,79.5z"></path><path d="M407.6,62.6v16.9H405V62.6H407.6z"></path><path d="M424,66.6c-1.8-1.7-3.6-1.9-4.6-1.9c-3.7,0-6.1,2.7-6.1,6.4c0,3.6,2.5,6.3,6.1,6.3c0.8,0,2.7-0.1,4.6-2v3.1
	c-0.5,0.3-2.1,1.3-4.6,1.3c-1.5,0-3.8-0.3-6-2.3c-1.6-1.6-2.7-3.6-2.7-6.4c0-2.2,0.7-4.7,2.7-6.6c1.8-1.7,3.8-2.3,6.1-2.3
	c2.2,0,3.5,0.6,4.5,1.3L424,66.6L424,66.6z"></path><path d="M429.7,62.6v10.2c0,0.9,0,2,0.5,2.9c0.5,0.9,1.6,1.7,3.1,1.7c1.3,0,2.5-0.5,3.1-1.7c0.5-0.9,0.5-2,0.5-2.9V62.6h2.6v10.9
	c0,1.4-0.3,3-1.6,4.4c-0.9,1-2.4,2-4.7,2s-3.8-1-4.7-2c-1.3-1.4-1.6-3-1.6-4.4V62.6H429.7z"></path><path d="M446.5,62.6c1.4,0,3.1,0.1,4.5,1c1.6,1.1,2,2.9,2,4c0,2.4-1.5,4.2-3.8,4.7l5.3,7.2h-3.1l-4.8-6.9H446v6.9h-2.6V62.6
	L446.5,62.6L446.5,62.6z M446.1,70.4h0.8c0.7,0,3.5-0.1,3.5-2.8c0-2.4-2.2-2.6-3.4-2.6h-0.9V70.4z"></path><path d="M466.2,65.1h-6.7v4.1h6.5v2.4h-6.5v5.6h6.7v2.4h-9.3V62.6h9.3V65.1z"></path><path d="M283.6,101.2l-5.5-9.6h2.9l3.9,6.8l3.9-6.8h2.9l-5.5,9.6v7.3h-2.6L283.6,101.2L283.6,101.2z"></path><path d="M309.7,100.1c0,4.9-3.7,8.8-8.8,8.8s-8.8-3.8-8.8-8.8c0-5,3.8-8.8,8.8-8.8S309.7,95.1,309.7,100.1z M307,100.1
	c0-3.8-2.5-6.4-6.1-6.4s-6.1,2.7-6.1,6.4c0,3.7,2.5,6.4,6.1,6.4S307,103.8,307,100.1z"></path><path d="M315.4,91.6v10.2c0,0.9,0,2,0.5,2.9c0.5,0.9,1.6,1.7,3.1,1.7c1.3,0,2.5-0.5,3.1-1.7c0.5-0.9,0.5-2,0.5-2.9V91.6h2.6v10.9
	c0,1.4-0.3,3-1.6,4.4c-0.9,1-2.4,2-4.7,2s-3.8-1-4.7-2c-1.3-1.4-1.6-3-1.6-4.4V91.6H315.4z"></path><path d="M332.2,91.6c1.4,0,3.1,0.1,4.5,1c1.6,1.1,2,2.9,2,4c0,2.4-1.5,4.2-3.8,4.7l5.3,7.2h-3.1l-4.8-6.9h-0.4v6.9h-2.6V91.6
	L332.2,91.6L332.2,91.6z M331.8,99.4h0.8c0.7,0,3.5-0.1,3.5-2.8c0-2.4-2.2-2.6-3.4-2.6h-0.9V99.4z"></path><path d="M355.6,95.4c-0.2-0.4-0.4-0.8-0.8-1.1c-0.5-0.5-1.1-0.6-1.8-0.6c-1.4,0-2.4,0.7-2.4,2c0,1.2,1,1.8,1.8,2.1l1.7,0.7
	c1.7,0.6,4,1.9,4,5c0,3.2-2.3,5.4-5.5,5.4c-1.6,0-3-0.6-4-1.7c-0.6-0.6-1.3-1.7-1.4-3.3l2.6-0.6c0,0.8,0.3,1.6,0.7,2.1
	c0.6,0.8,1.3,1,2.2,1c2,0,2.8-1.4,2.8-2.8c0-1.7-1.4-2.4-2.4-2.9l-1.6-0.7c-1.7-0.8-3.5-1.9-3.5-4.3c0-2.7,2.3-4.5,5-4.5
	c1.8,0,2.8,0.6,3.4,1.2c0.4,0.3,0.9,0.9,1.3,1.7L355.6,95.4z"></path><path d="M365.6,94v14.5H363V94h-3.9v-2.4h10.3V94H365.6z"></path><path d="M375.2,101.2l-5.5-9.6h2.9l3.9,6.8l3.9-6.8h2.9l-5.5,9.6v7.3h-2.6L375.2,101.2L375.2,101.2z"></path><path d="M387.9,91.6v14.5h4.9v2.4h-7.5V91.6H387.9z"></path><path d="M404.4,94h-6.7v4.1h6.5v2.4h-6.5v5.6h6.7v2.4h-9.3V91.6h9.3V94z"></path><circle cx="232.7" cy="19.4" r="19.4"></circle><path d="M70.6,94.7l0.7,0.5c-4.1,18.9-15.1,28.3-33.2,28.3c-10.9,0-20-3.4-27.3-10.1C3.6,106.7,0,97.4,0,85.4
	c0-11.9,3.6-21,10.8-27.5c7.3-6.5,16.4-9.7,27.5-9.7c10.8,0,19,2.9,24.5,8.7c5.6,5.8,8.4,12.5,8.4,19.9v1.7H25v1.3
	c0,9,2.5,15.6,7.4,19.8c4.9,4.2,10.9,6.3,17.9,6.3C59.5,105.9,66.3,102.1,70.6,94.7z M35.7,52.4L35.7,52.4c-6.4,0-9.9,7.3-10.6,22
	h21.6C46.4,59.7,42.7,52.4,35.7,52.4z"></path><path d="M203.2,104.8l0.1-0.4c0,5.3,0.4,8.8,1.3,10.6c0.9,1.8,2.9,4.1,6.2,6.1v1h-42.8v-1c3.2-2.1,5.3-4.6,6.3-6.4
	c1-1.8,1.5-5.3,1.5-10.4c0.2-12.3,0.3-22.5,0.3-30.6c0-4.1-0.9-7.2-2.8-9.3s-4.1-3-6.6-3c-4,0-7.4,2.4-10.2,7.2
	c0.1,0.7,0.1,1.5,0.1,2.4v33.4c0,5.3,0.5,9,1.4,10.8c0.9,1.8,2.9,3.7,6.1,5.9v1h-42.7v-1c3.2-1.9,5.3-3.9,6.3-5.9
	c1-2,1.5-5.7,1.5-10.7c0.1-6.1,0.1-16.3,0.1-30.7c0-4.1-0.9-7.2-2.7-9.3c-1.8-2-3.9-3-6.5-3c-3.8,0-7.2,2.4-10.2,7.3v35.6
	c0,5.3,0.5,8.8,1.4,10.6c1,1.8,3,3.8,6.1,5.9v1H74.7v-1c3.3-2,5.4-3.9,6.2-5.7c0.9-1.8,1.3-5.4,1.3-10.6V75.4
	c0-6.5-0.4-10.9-1.3-13c-0.9-2.2-2.9-4.6-6.1-7.2v-1c11.2-0.6,22.7-2.6,34.5-6.1v15.6c6.6-10.2,14.9-15.3,24.9-15.3
	c4.3,0,8.6,1.2,12.9,3.5c4.3,2.3,7.2,6.4,8.7,12.2c6.5-10.5,14.9-15.7,25.2-15.7c2.2,0,4.3,0.3,6.5,0.9c2.2,0.6,4.6,1.6,7.1,3
	c2.6,1.4,4.6,3.8,6.2,7.1c1.6,3.2,2.4,7.2,2.4,11.9L203.2,104.8L203.2,104.8z"></path><path d="M214.9,122.2v-1c3.3-2,5.4-3.9,6.2-5.7c0.9-1.8,1.3-5.4,1.3-10.6V75.5c0-4.6-0.3-8.2-0.9-10.6s-1.3-4.1-2-5.1
	c-0.8-0.9-2.3-2.4-4.6-4.3v-1.2c11.8-0.8,23.5-2.9,35-6.3v56.7c0,5.3,0.5,8.8,1.5,10.6c1,1.8,3,3.6,6.1,5.8v1L214.9,122.2
	L214.9,122.2z"></path></svg>