<?xml version="1.0" encoding="UTF-8" standalone="no"?>
<!-- Generator: Adobe Illustrator 25.2.1, SVG Export Plug-In . SVG Version: 6.00 Build 0)  -->

<svg
   xmlns:dc="http://purl.org/dc/elements/1.1/"
   xmlns:cc="http://creativecommons.org/ns#"
   xmlns:rdf="http://www.w3.org/1999/02/22-rdf-syntax-ns#"
   xmlns:svg="http://www.w3.org/2000/svg"
   xmlns="http://www.w3.org/2000/svg"
   xmlns:sodipodi="http://sodipodi.sourceforge.net/DTD/sodipodi-0.dtd"
   xmlns:inkscape="http://www.inkscape.org/namespaces/inkscape"
   version="1.1"
   id="Слой_1"
   x="0px"
   y="0px"
   viewBox="0 0 517.58 125.97"
   style="enable-background:new 0 0 517.58 125.97;"
   xml:space="preserve"
   sodipodi:docname="logo_new_white.svg"
   inkscape:version="0.92.3 (2405546, 2018-03-11)"><metadata
   id="metadata1017"><rdf:RDF><cc:Work
       rdf:about=""><dc:format>image/svg+xml</dc:format><dc:type
         rdf:resource="http://purl.org/dc/dcmitype/StillImage" /><dc:title></dc:title></cc:Work></rdf:RDF></metadata><defs
   id="defs1015" /><sodipodi:namedview
   pagecolor="#ffffff"
   bordercolor="#666666"
   borderopacity="1"
   objecttolerance="10"
   gridtolerance="10"
   guidetolerance="10"
   inkscape:pageopacity="0"
   inkscape:pageshadow="2"
   inkscape:window-width="1920"
   inkscape:window-height="1017"
   id="namedview1013"
   showgrid="false"
   inkscape:zoom="1.4645079"
   inkscape:cx="267.96984"
   inkscape:cy="62.181192"
   inkscape:window-x="-8"
   inkscape:window-y="-8"
   inkscape:window-maximized="1"
   inkscape:current-layer="g1010" />
<g
   id="g1010">
	<g
   id="g960">
		<circle
   cx="232.99"
   cy="21.87"
   r="19.4"
   id="circle952"
   style="fill:#ffffff;fill-opacity:1" />
		<path
   d="M70.88,97.18l0.72,0.51c-4.05,18.85-15.11,28.28-33.2,28.28c-10.9,0-19.99-3.37-27.27-10.12    C3.9,109.15,0.28,99.82,0.28,87.86C0.28,76,3.9,66.84,11.13,60.38c7.28-6.46,16.44-9.69,27.48-9.69c10.8,0,18.97,2.89,24.52,8.68    c5.59,5.83,8.39,12.46,8.39,19.89v1.65H25.31v1.3c0,9.02,2.46,15.62,7.38,19.82c4.92,4.19,10.87,6.29,17.86,6.29    C59.76,108.32,66.54,104.61,70.88,97.18z M35.94,54.87h0.07c-6.46,0-10.01,7.33-10.63,21.99H47    C46.67,62.2,42.98,54.87,35.94,54.87z"
   id="path954"
   style="fill:#ffffff;fill-opacity:1;opacity:1" />
		<path
   d="M203.44,107.23l0.07-0.36c0,5.26,0.43,8.8,1.3,10.63c0.87,1.78,2.94,4.15,6.22,6.13v1.01h-42.81v-1.01    c3.23-2.12,5.33-4.56,6.29-6.35c0.96-1.78,1.47-5.25,1.52-10.41c0.19-12.29,0.29-22.49,0.29-30.59c0-4.15-0.94-7.23-2.82-9.26    s-4.1-3.04-6.65-3.04c-3.95,0-7.35,2.39-10.2,7.16c0.1,0.68,0.14,1.47,0.14,2.39v33.41c0,5.26,0.48,9,1.45,10.83    c0.92,1.78,2.94,3.74,6.07,5.86v1.01h-42.67v-1.01c3.23-1.93,5.33-3.88,6.29-5.86c0.96-1.98,1.47-5.67,1.52-10.69    c0.1-6.08,0.14-16.3,0.14-30.66c0-4.1-0.92-7.18-2.75-9.26c-1.78-2.03-3.95-3.04-6.51-3.04c-3.81,0-7.21,2.43-10.2,7.3v35.65    c0,5.26,0.48,8.8,1.45,10.63c0.96,1.78,2.99,3.79,6.07,5.91v1.01H74.98v-1.01c3.28-1.98,5.35-3.91,6.22-5.7    c0.87-1.83,1.3-5.38,1.3-10.63V77.84c0-6.51-0.43-10.85-1.3-13.02c-0.87-2.17-2.89-4.56-6.07-7.16v-1.01    c11.18-0.58,22.68-2.6,34.5-6.08v15.55c6.56-10.17,14.85-15.26,24.88-15.26c4.29,0,8.58,1.16,12.87,3.47s7.18,6.39,8.68,12.22    c6.51-10.46,14.9-15.69,25.17-15.69c2.17,0,4.34,0.29,6.51,0.87c2.22,0.58,4.58,1.59,7.09,3.04c2.56,1.45,4.63,3.81,6.22,7.09    c1.59,3.23,2.39,7.21,2.39,11.93L203.44,107.23L203.44,107.23z"
   id="path956"
   style="fill:#ffffff;fill-opacity:1" />
		<path
   d="M215.17,124.65v-1.01c3.28-1.98,5.36-3.92,6.23-5.7c0.87-1.83,1.3-5.38,1.3-10.63v-29.3c0-4.63-0.29-8.17-0.87-10.63    s-1.25-4.15-2.03-5.06c-0.82-0.92-2.34-2.36-4.56-4.34v-1.16c11.81-0.77,23.48-2.87,35-6.29v56.7c0,5.26,0.48,8.8,1.45,10.63    c0.96,1.78,2.99,3.65,6.07,5.77v1.01L215.17,124.65L215.17,124.65z"
   id="path958"
   style="fill:#ffffff;fill-opacity:1" />
	</g>
	<g
   id="g1008"
   style="fill:#ffffff;fill-opacity:1">
		<path
   d="M279.77,82.22l3.53-18.05l5.83,13.01l5.9-13.01l3.17,18.05h-2.64l-1.68-10.13l-4.9,10.9l-4.83-10.92l-1.75,10.15    L279.77,82.22L279.77,82.22z"
   id="path962"
   style="fill:#ffffff;fill-opacity:1" />
		<path
   d="M311.5,78.14h-7.13l-1.85,4.08h-2.78l8.35-17.76l7.97,17.76h-2.78L311.5,78.14z M310.49,75.74l-2.5-5.66l-2.59,5.66    H310.49z"
   id="path964"
   style="fill:#ffffff;fill-opacity:1" />
		<path
   d="M320.67,72h7.15v-6.58h2.59v16.8h-2.59V74.4h-7.15v7.82h-2.59v-16.8h2.59V72z"
   id="path966"
   style="fill:#ffffff;fill-opacity:1" />
		<path
   d="M345.58,70.89l-11.33,12.05V65.42h2.59v11.33l11.33-12.05v17.52h-2.59V70.89z"
   id="path968"
   style="fill:#ffffff;fill-opacity:1" />
		<path
   d="M354.61,72.12l6.48-6.7h3.36l-7.58,7.61l7.63,9.19h-3.41l-6.48-8.06v8.06h-2.59v-16.8h2.59V72.12z"
   id="path970"
   style="fill:#ffffff;fill-opacity:1" />
		<path
   d="M371.84,72.09c0.36-2.35,1.56-3.84,2.16-4.49c0.94-1.01,2.88-2.52,6.14-2.52c4.94,0,8.5,3.79,8.5,8.76    c0,4.92-3.55,8.71-8.5,8.71c-3.86,0-5.86-2.06-6.58-2.95c-0.94-1.15-1.78-2.9-1.82-5.11h-2.5v7.73h-2.59v-16.8h2.59v6.67    L371.84,72.09L371.84,72.09z M385.95,73.82c0-3.7-2.42-6.34-5.81-6.34c-3.38,0-5.81,2.64-5.81,6.34c0,3.67,2.4,6.34,5.81,6.34    S385.95,77.49,385.95,73.82z"
   id="path972"
   style="fill:#ffffff;fill-opacity:1" />
		<path
   d="M395.4,65.42c1.1,0,2.4,0.07,3.67,0.91c1.68,1.1,2.09,2.83,2.09,4.08c0,1.75-0.79,2.95-1.63,3.67    c-1.32,1.13-2.88,1.32-4.1,1.32h-1.13v6.82h-2.59v-16.8L395.4,65.42L395.4,65.42z M394.3,73.01h1.13c1.13,0,3.14-0.26,3.14-2.62    c0-2.45-2.28-2.57-3.17-2.57h-1.1V73.01z"
   id="path974"
   style="fill:#ffffff;fill-opacity:1" />
		<path
   d="M285.01,96.62v14.4h-2.59v-14.4h-3.84v-2.4h10.27v2.4H285.01z"
   id="path976"
   style="fill:#ffffff;fill-opacity:1" />
		<path
   d="M293.55,94.22c1.34,0,2.81-0.05,4.15,0.89c1.01,0.7,1.9,1.87,1.9,3.79c0,0.94-0.22,2.09-1.49,3.07    c2.11,0.65,2.93,2.5,2.93,4.06c0,0.98-0.31,2.69-1.68,3.82c-1.46,1.2-3.29,1.18-4.49,1.18h-3.86v-16.8L293.55,94.22L293.55,94.22z     M293.6,101.45h0.77c0.58,0,2.74,0,2.74-2.47c0-2.3-2.06-2.35-2.64-2.35h-0.86L293.6,101.45L293.6,101.45z M293.6,108.62h1.54    c2.76,0,3.31-1.46,3.31-2.54c0-1.15-0.62-2.52-3.26-2.52h-1.58v5.06H293.6z"
   id="path978"
   style="fill:#ffffff;fill-opacity:1" />
		<path
   d="M320.81,102.65c0,4.9-3.7,8.71-8.74,8.71c-5.04,0-8.74-3.82-8.74-8.71c0-4.94,3.72-8.76,8.74-8.76    S320.81,97.7,320.81,102.65z M318.13,102.65c0-3.72-2.5-6.36-6.05-6.36s-6.05,2.64-6.05,6.36c0,3.7,2.5,6.31,6.05,6.31    S318.13,106.34,318.13,102.65z"
   id="path980"
   style="fill:#ffffff;fill-opacity:1" />
		<path
   d="M333.15,96.62h-6.67v4.03h6.48v2.4h-6.48v5.57h6.67v2.4h-9.26v-16.8h9.26V96.62z"
   id="path982"
   style="fill:#ffffff;fill-opacity:1" />
		<path
   d="M344.72,96.62h-5.81v14.4h-2.59v-16.8h8.4V96.62z"
   id="path984"
   style="fill:#ffffff;fill-opacity:1" />
		<path
   d="M362.24,102.65c0,4.9-3.7,8.71-8.74,8.71c-5.04,0-8.74-3.82-8.74-8.71c0-4.94,3.72-8.76,8.74-8.76    S362.24,97.7,362.24,102.65z M359.55,102.65c0-3.72-2.5-6.36-6.05-6.36s-6.05,2.64-6.05,6.36c0,3.7,2.5,6.31,6.05,6.31    S359.55,106.34,359.55,102.65z"
   id="path986"
   style="fill:#ffffff;fill-opacity:1" />
		<path
   d="M373.49,100.8h7.15v-6.58h2.59v16.8h-2.59v-7.82h-7.15v7.82h-2.59v-16.8h2.59V100.8z"
   id="path988"
   style="fill:#ffffff;fill-opacity:1" />
		<path
   d="M397.01,106.94h-7.13l-1.85,4.08h-2.78l8.35-17.76l7.97,17.76h-2.78L397.01,106.94z M396,104.54l-2.5-5.66l-2.59,5.66H396    z"
   id="path990"
   style="fill:#ffffff;fill-opacity:1" />
		<path
   d="M415.35,98.16c-1.78-1.73-3.62-1.87-4.54-1.87c-3.65,0-6.03,2.71-6.03,6.41c0,3.58,2.47,6.26,6.03,6.26    c0.79,0,2.64-0.14,4.54-1.94v3.07c-0.53,0.34-2.09,1.27-4.61,1.27c-1.44,0-3.79-0.29-5.95-2.33c-1.63-1.56-2.69-3.6-2.69-6.34    c0-2.18,0.67-4.66,2.69-6.58c1.75-1.68,3.77-2.23,6.07-2.23c2.16,0,3.46,0.55,4.49,1.25V98.16z"
   id="path992"
   style="fill:#ffffff;fill-opacity:1" />
		<path
   d="M423.12,96.62v14.4h-2.59v-14.4h-3.84v-2.4h10.27v2.4H423.12z"
   id="path994"
   style="fill:#ffffff;fill-opacity:1" />
		<path
   d="M432.82,94.22c1.1,0,2.4,0.07,3.67,0.91c1.68,1.1,2.09,2.83,2.09,4.08c0,1.75-0.79,2.95-1.63,3.67    c-1.32,1.13-2.88,1.32-4.1,1.32h-1.13v6.82h-2.59v-16.8L432.82,94.22L432.82,94.22z M431.71,101.81h1.13    c1.13,0,3.14-0.26,3.14-2.62c0-2.45-2.28-2.57-3.17-2.57h-1.1V101.81z"
   id="path996"
   style="fill:#ffffff;fill-opacity:1" />
		<path
   d="M457.78,102.65c0,4.9-3.7,8.71-8.74,8.71c-5.04,0-8.74-3.82-8.74-8.71c0-4.94,3.72-8.76,8.74-8.76    S457.78,97.7,457.78,102.65z M455.09,102.65c0-3.72-2.5-6.36-6.05-6.36s-6.05,2.64-6.05,6.36c0,3.7,2.5,6.31,6.05,6.31    S455.09,106.34,455.09,102.65z"
   id="path998"
   style="fill:#ffffff;fill-opacity:1" />
		<path
   d="M470.11,96.62h-6.67v4.03h6.48v2.4h-6.48v5.57h6.67v2.4h-9.26v-16.8h9.26V96.62z"
   id="path1000"
   style="fill:#ffffff;fill-opacity:1" />
		<path
   d="M475.87,100.8h7.15v-6.58h2.59v16.8h-2.59v-7.82h-7.15v7.82h-2.59v-16.8h2.59V100.8z"
   id="path1002"
   style="fill:#ffffff;fill-opacity:1" />
		<path
   d="M500.78,99.69l-11.33,12.05V94.22h2.59v11.33l11.33-12.05v17.52h-2.59V99.69z"
   id="path1004"
   style="fill:#ffffff;fill-opacity:1" />
		<path
   d="M510.77,104.01c-0.84-0.1-1.87-0.5-2.59-1.13c-1.18-1.01-1.44-2.38-1.44-3.58c0-1.49,0.46-2.59,1.3-3.5    c1.46-1.58,3.34-1.58,4.56-1.58h4.15v16.8h-2.59v-6.72h-0.6l-4.61,6.72h-3.17L510.77,104.01z M512.88,96.62    c-1.15,0-2.23,0.12-2.86,0.77c-0.43,0.46-0.7,1.32-0.7,1.92c0,0.82,0.31,1.58,0.86,2.02c0.31,0.24,0.96,0.58,2.54,0.58h1.42v-5.28    h-1.26V96.62z"
   id="path1006"
   style="fill:#ffffff;fill-opacity:1" />
	</g>
</g>
</svg>