<svg version="1.1" xmlns="http://www.w3.org/2000/svg" xmlns:xlink="http://www.w3.org/1999/xlink" viewBox="0 0 257.5 123.5">
    <circle cx="232.7" cy="19.4" r="19.4"></circle>
    <path d="M70.6,94.7l0.7,0.5c-4.1,18.9-15.1,28.3-33.2,28.3c-10.9,0-20-3.4-27.3-10.1C3.6,106.7,0,97.4,0,85.4
		c0-11.9,3.6-21,10.8-27.5c7.3-6.5,16.4-9.7,27.5-9.7c10.8,0,19,2.9,24.5,8.7c5.6,5.8,8.4,12.5,8.4,19.9v1.7H25v1.3
		c0,9,2.5,15.6,7.4,19.8c4.9,4.2,10.9,6.3,17.9,6.3C59.5,105.9,66.3,102.1,70.6,94.7z M35.7,52.4L35.7,52.4c-6.4,0-9.9,7.3-10.6,22
		h21.6C46.4,59.7,42.7,52.4,35.7,52.4z"></path>
    <path d="M203.2,104.8l0.1-0.4c0,5.3,0.4,8.8,1.3,10.6c0.9,1.8,2.9,4.1,6.2,6.1v1h-42.8v-1c3.2-2.1,5.3-4.6,6.3-6.4
		c1-1.8,1.5-5.3,1.5-10.4c0.2-12.3,0.3-22.5,0.3-30.6c0-4.1-0.9-7.2-2.8-9.3s-4.1-3-6.6-3c-4,0-7.4,2.4-10.2,7.2
		c0.1,0.7,0.1,1.5,0.1,2.4v33.4c0,5.3,0.5,9,1.4,10.8c0.9,1.8,2.9,3.7,6.1,5.9v1h-42.7v-1c3.2-1.9,5.3-3.9,6.3-5.9
		c1-2,1.5-5.7,1.5-10.7c0.1-6.1,0.1-16.3,0.1-30.7c0-4.1-0.9-7.2-2.7-9.3c-1.8-2-3.9-3-6.5-3c-3.8,0-7.2,2.4-10.2,7.3v35.6
		c0,5.3,0.5,8.8,1.4,10.6c1,1.8,3,3.8,6.1,5.9v1H74.7v-1c3.3-2,5.4-3.9,6.2-5.7c0.9-1.8,1.3-5.4,1.3-10.6V75.4
		c0-6.5-0.4-10.9-1.3-13c-0.9-2.2-2.9-4.6-6.1-7.2v-1c11.2-0.6,22.7-2.6,34.5-6.1v15.6c6.6-10.2,14.9-15.3,24.9-15.3
		c4.3,0,8.6,1.2,12.9,3.5c4.3,2.3,7.2,6.4,8.7,12.2c6.5-10.5,14.9-15.7,25.2-15.7c2.2,0,4.3,0.3,6.5,0.9c2.2,0.6,4.6,1.6,7.1,3
		c2.6,1.4,4.6,3.8,6.2,7.1c1.6,3.2,2.4,7.2,2.4,11.9L203.2,104.8L203.2,104.8z"></path>
    <path d="M214.9,122.2v-1c3.3-2,5.4-3.9,6.2-5.7c0.9-1.8,1.3-5.4,1.3-10.6V75.5c0-4.6-0.3-8.2-0.9-10.6s-1.3-4.1-2-5.1
		c-0.8-0.9-2.3-2.4-4.6-4.3v-1.2c11.8-0.8,23.5-2.9,35-6.3v56.7c0,5.3,0.5,8.8,1.5,10.6c1,1.8,3,3.6,6.1,5.8v1L214.9,122.2
		L214.9,122.2z"></path>
</svg>